<svg
    version="1.1"
    width="100%"
    height="100%"
    viewBox="0 0 1333.3333 1066.6667"
    xmlns="http://www.w3.org/2000/svg"
>
    <g fill="#211c1d" transform="translate(-394.926,291.588)">
        <path
            id="path7"
            d="m 7674.11,6469.85 v -98.94 h 60.99 v -104.44 h 818.52 v 104.44 h 52.22 v 98.94 h -52.22 c 0,0 148.08,151.69 99.48,324.32 -79.71,283.1 -467.78,250.12 -508.74,464.5 -40.96,-214.38 -429.02,-181.4 -508.73,-464.5 -48.6,-172.63 99.47,-324.32 99.47,-324.32 h -60.99"
            fill-rule="nonzero"
            stroke="none"
            transform="matrix(0.13333333,0,0,-0.13333333,0,1066.6667)"
        />
        <path
            id="path8"
            d="m 8989.06,6682.62 v 0"
            fill-rule="nonzero"
            stroke="none"
            transform="matrix(0.13333333,0,0,-0.13333333,0,1066.6667)"
        />
        <path
            id="path9"
            d="m 8774.49,6336.55 h -40.84 v -53.59 h 45.34 v -30.23 h 420.52 v 30.23 h 53.6 v 53.59 h -44.97 c 20.61,17.98 68.86,70.7 38.1,149.8 -37.08,95.33 -216,83.55 -256.99,195.65 -40.98,-112.1 -215.78,-100.32 -252.86,-195.65 -30.76,-79.1 17.5,-131.82 38.1,-149.8"
            fill-rule="nonzero"
            stroke="none"
            transform="matrix(0.13333333,0,0,-0.13333333,0,1066.6667)"
        />
        <path
            id="path10"
            d="m 6771.62,7190.04 v -48.02 h 35.64 v -23.52 h 185.32 v 23.52 h 30.89 v 48.02 h -27.51 c 135.26,202.41 -95.73,310.87 -95.73,310.87 0,0 -230.98,-108.46 -95.73,-310.87 h -32.88"
            fill-rule="nonzero"
            stroke="none"
            transform="matrix(0.13333333,0,0,-0.13333333,0,1066.6667)"
        />
        <path
            id="path11"
            d="m 7512.49,5237.57 c -751.22,290.55 -964.71,182.15 -1136.16,89.62 195.18,54.81 511.18,55.53 1006.5,-141.3 844.8,-335.72 1346.09,-387.71 1674.01,-220.99 -327.25,-97.92 -801.17,-14.77 -1544.35,272.67"
            fill-rule="nonzero"
            stroke="none"
            transform="matrix(0.13333333,0,0,-0.13333333,0,1066.6667)"
        />
        <path
            id="path12"
            d="m 6848.01,6948.09 c 0,28.84 23.38,52.22 52.22,52.22 28.84,0 52.22,-23.38 52.22,-52.22 V 6840.9 H 6848.01 Z M 9372.14,5526.08 v 633.2 h -172.63 v 39.85 h -420.52 v -39.85 h -225.37 v 39.85 H 7735.1 v -56.47 h -110.52 c 0,0 123.55,282.73 -213.84,371.83 -337.38,-89.1 -213.83,-371.83 -213.83,-371.83 h -110.53 -3.51 l -19.01,52.27 h -64.15 v 515.57 l 45.14,45.15 v 57.02 h -52.27 v 261.85 h -185.32 v -266.6 h -40.39 v -49.9 l 45.14,-45.14 v -522.7 H 6774 v -47.52 h 42.77 V 5711.8 c -236.17,-74.12 -426.9,-207.37 -527.15,-424.24 0,0 246.57,468.16 1360.8,124.84 1220.04,-375.93 1721.72,-239.32 1983.85,252.23 0,0 -74.03,-91.06 -262.13,-138.55"
            fill-rule="nonzero"
            stroke="none"
            transform="matrix(0.13333333,0,0,-0.13333333,0,1066.6667)"
        />
    </g>
</svg>